<svg id="Layer_1" data-name="Layer 1" xmlns="http://www.w3.org/2000/svg" viewBox="0 0 121.45 121.45"><defs><style>.cls-1{fill:#fff;}</style></defs><title>icon-jtd</title><rect class="cls-1" width="121.45" height="121.45"/><polygon points="101.94 87.01 103.25 81.34 79.69 81.34 89.57 40.08 95.09 48.24 88.31 73.87 97.96 73.87 103.25 81.34 113.62 40.06 89.57 40.08 84.63 33.53 80.95 48.7 75.66 40.31 62.68 40.31 68.77 47.89 58.88 88.58 52.22 79.96 62.68 40.31 49.75 40.32 45.13 32.26 32.42 91.04 26.13 82.49 0 82.49 0 121.45 121.45 121.45 121.45 40.42 110.37 80.76 101.94 87.01"/><polygon points="0 61.23 0 82.49 5.21 67.09 0 61.23"/><polygon points="0 0 0 61.23 14.98 61.23 11.07 73.98 19.58 73.98 26.13 82.49 35.32 39.27 29.46 32.26 114.39 32.26 121.45 40.42 121.45 0 0 0"/></svg>