<svg xmlns="http://www.w3.org/2000/svg" width="93.21" height="93.21" viewBox="0 0 93.21 93.21">
  <title>jtd_favicon</title>
  <g>
    <polygon points="78.23 66.78 79.24 62.43 61.16 62.43 68.74 30.76 72.98 37.02 67.77 56.69 75.18 56.69 79.24 62.43 87.2 30.74 68.74 30.76 64.95 25.73 62.13 37.38 58.07 30.94 48.1 30.94 52.78 36.76 45.19 67.98 40.08 61.37 48.1 30.94 38.18 30.94 34.64 24.76 24.88 69.87 20.05 63.31 0 63.31 0 93.21 93.21 93.21 93.21 31.02 84.71 61.98 78.23 66.78" fill="#231f20"/>
    <polygon points="0 46.99 0 63.31 4 51.49 0 46.99" fill="#231f20"/>
    <polygon points="0 0 0 46.99 11.5 46.99 8.5 56.78 15.03 56.78 20.05 63.31 27.11 30.14 22.61 24.76 87.79 24.76 93.21 31.02 93.21 0 0 0" fill="#231f20"/>
  </g>
</svg>
