<svg xmlns="http://www.w3.org/2000/svg" viewBox="0 0 140 140"><title>jtd_favicon</title><rect width="140" height="140" fill="#fff"/><rect x="9.28" y="9.28" width="121.45" height="121.45" fill="#fff"/><polygon points="111.21 96.29 112.52 90.61 88.96 90.61 98.84 49.35 104.36 57.51 97.58 83.14 107.23 83.14 112.52 90.61 122.89 49.33 98.84 49.35 93.9 42.8 90.22 57.97 84.94 49.58 71.95 49.58 78.04 57.17 68.16 97.86 61.49 89.23 71.95 49.58 59.02 49.59 54.41 41.54 41.7 100.31 35.4 91.76 9.28 91.76 9.28 130.72 130.72 130.72 130.72 49.7 119.65 90.04 111.21 96.29" fill="#231f20"/><polygon points="9.28 70.5 9.28 91.76 14.49 76.36 9.28 70.5" fill="#231f20"/><polygon points="9.28 9.28 9.28 70.5 24.26 70.5 20.35 83.26 28.85 83.26 35.4 91.76 44.6 48.55 38.74 41.54 123.67 41.54 130.72 49.7 130.72 9.28 9.28 9.28" fill="#231f20"/><path d="M137.93,2.07V137.93H2.07V2.07H137.93m2-2H.07V139.93H139.93V.07Z" fill="#231f20"/></svg>