<svg id="Layer_1" data-name="Layer 1" xmlns="http://www.w3.org/2000/svg" viewBox="0 0 327 62.55"><defs><style>.cls-1{fill:#fff;}</style></defs><title>logo-jtuttledigital</title><path class="cls-1" d="M320.21,370.22H307.48l5.76-24.87H227.75L223.91,362c-1,4-1.78,6.67-4.57,8.41a8.42,8.42,0,0,1-4.2,1.1c-6.22.22-7.55-3.16-6.77-7l4.39-19.2H158l-5.07,21.76c-.73,2.61-1.69,3.06-4.34,3.16h-3.43l-1.65,7.36h7.09c2.24,0,6.58-.28,9.37-2.34s3.75-5.34,4.43-8.09l3.39-14.58H178l-5.81,25h11.52l5.81-25h10l-2.72,11.8c-.28,1.59-1.37,5,.55,8.68s7.95,5.53,16.27,5.53c5.44,0,10.75-.68,14.63-3.24,4.89-3.07,5.53-7.68,6.31-9.51l3.07-13.26h10.23l-5.8,25h11.52l5.8-25h17.79l-5.81,25h11.52l5.81-25H300l-5.78,25h59.11l1.69-7.32H331.57l1.28-5.35H353.7l1.64-7.13H334.5l1.23-5.35h21.85l1.65-7.13H326Z" transform="translate(-143.5 -329.8)"/><path class="cls-1" d="M384.75,348.64h-8.44c-.9,0-1.39.58-1.39,1.64v21.14c0,1.22.58,1.88,1.64,1.88H383c10.57,0,13.52-4.75,13.52-13.11,0-7.21-4.43-11.55-11.8-11.55m-1.31,22.86c-3.68,0-5.65-2-5.65-5.9v-7.78c0-5.33,1.15-7.37,5.65-7.37,6.88,0,10.16,4.66,10.16,10.56,0,6.06-3.6,10.49-10.16,10.49" transform="translate(-143.5 -329.8)"/><path class="cls-1" d="M402,349.54c.49,0,1.31-.4,1.31-1.06,0-.82-.82-1.07-1.64-1.07s-1.31.41-1.31,1.07.41,1.06,1.64,1.06" transform="translate(-143.5 -329.8)"/><path class="cls-1" d="M401.7,354.79c-1.39,0-1.8,1-1.8,2.95v11.63c0,3.76.25,4.26,2.05,4.26,1.15,0,1.72-1,1.72-2.87V359.21c0-3.52,0-4.42-2-4.42" transform="translate(-143.5 -329.8)"/><path class="cls-1" d="M422.06,355.57a12.13,12.13,0,0,0-2.71.32,16.21,16.21,0,0,1-2.53-.41,14.7,14.7,0,0,0-3.12-.57c-3.6,0-6.63,3.77-6.63,9,0,5.9,3,8,6.47,8.27.65.08,3-.24,2.21-.24a13.71,13.71,0,0,1,1.8-.17c2.38,0,3.61,1.23,3.61,3.61,0,2.62-2.46,4.67-5.57,4.67-2.87,0-4.67-3.2-6.31-3.2-.65,0-1.07.25-1.07,1.15,0,.65,1.56,2.7,7.13,2.7,6.55,0,8.77-2,8.77-5.89V357.61c0-1.31-.41-2-2.05-2m-6.39,15.31c-3.44,0-5.65-2.95-5.65-7.7,0-4.26,2.54-6.8,5.73-6.8,3.52,0,5.65,3.61,5.65,7.95,0,3.77-2.45,6.55-5.73,6.55" transform="translate(-143.5 -329.8)"/><path class="cls-1" d="M430.17,354.79c-1.4,0-1.81,1-1.81,2.95v11.63c0,3.76.25,4.26,2.05,4.26,1.15,0,1.72-1,1.72-2.87V359.21c0-3.52,0-4.42-2-4.42" transform="translate(-143.5 -329.8)"/><path class="cls-1" d="M430.41,349.54c.49,0,1.31-.4,1.31-1.06,0-.82-.82-1.07-1.64-1.07s-1.31.41-1.31,1.07.41,1.06,1.64,1.06" transform="translate(-143.5 -329.8)"/><path class="cls-1" d="M442.74,371c-1.4-1-1.64-3.36-1.64-4.43v-3.93a9.36,9.36,0,0,1,.74-4c1.39-2.13,2.29-1.64,2.29-2.71,0-.9-1.64-1.14-2.13-2.21a8.12,8.12,0,0,1-.9-3c-.25-1.31-.9-1.55-1.72-1.55a1.77,1.77,0,0,0-1.89,1.39c-.49,2.38-.4,2.29-.57,2.46-.49,1.06-2,2.13-2,2.86,0,.9.91,1.23,1.32,2a6.15,6.15,0,0,1,1.14,4V369c0,3.77,1.8,5.49,5.33,5.49,1.23,0,1.88-.49,1.88-1.48,0-.74-1.23-1.55-1.88-2" transform="translate(-143.5 -329.8)"/><path class="cls-1" d="M454.61,354.54c-2.95,0-6.22,1.06-6.22,2.7,0,.66.49.58,1,.58,1.8,0,2.87-2.46,5.24-2.46h.66a4.06,4.06,0,0,1,3.93,4.26c0,1.72-2.13,3.28-6,3.77s-6.8,2.37-6.8,5.73c0,2.95,2.46,4.75,5.41,4.75,2.62,0,3.28-1.15,5.73-1.15,1.31,0,2.78.58,3.6.58,1,0,1.48-.58,1.48-1.64v-6c0-7.95.65-11.14-8-11.14m-1,17.78a3.85,3.85,0,0,1-3.93-3.77c0-2.62,3.27-4.92,6-4.92a3.47,3.47,0,0,1,3.68,3.44,5.51,5.51,0,0,1-5.73,5.25" transform="translate(-143.5 -329.8)"/><path class="cls-1" d="M468.37,347.05c-1.72,0-2.05,1.14-2.05,3.35v18.44c0,4.25.25,4.91,2.21,4.91,1.32,0,2-.66,2-2.05V349.58c0-1.63-.49-2.53-2.13-2.53" transform="translate(-143.5 -329.8)"/><rect class="cls-1" x="334.13" y="360.67" width="63.49" height="0.81" transform="translate(-199.87 324.45) rotate(-79.4)"/></svg>